<svg viewBox="-962 -470 1924 940" width="1924" height="940" style="background-color: rgb(255, 255, 255);" xmlns="http://www.w3.org/2000/svg"><path d="M50.068500545231686,40.609253704776805L-162.11201212719763,25.4892080958224M-162.11201212719763,-74.02858660382992L-162.11201212719763,25.4892080958224M-162.11201212719763,25.4892080958224L-191.52217527149327,48.8285106166042M50.068500545231686,-58.90854099487552L-162.11201212719763,-74.02858660382992M-162.11201212719763,-74.02858660382992L-191.52217527149327,-50.68928408304813" style="fill:none;stroke:rgb(0,0,0);stroke-width:1;stroke-linecap:round"></path><path d="M50.0685005452317,40.6092537047768L-162.1120121271976,25.489208095822402L-162.1120121271976,-74.02858660382992zM-162.1120121271976,-74.02858660382992L-162.1120121271976,25.489208095822402L-191.52217527149327,-50.68928408304813zM-191.52217527149327,48.8285106166042L-162.1120121271976,25.489208095822402L50.0685005452317,40.6092537047768zM50.0685005452317,-58.90854099487552L50.0685005452317,40.6092537047768L-162.1120121271976,-74.02858660382992z" style="fill:rgb(238,238,238); fill-opacity: 0.4"></path><path d="M50.068500545231686,-58.90854099487552L50.068500545231686,40.609253704776805M50.068500545231686,40.609253704776805L20.65833740093605,63.94855622555859" style="fill:none;stroke:rgb(0,0,0);stroke-width:1;stroke-linecap:round"></path><path d="M-162.1120121271976,25.489208095822402L-191.52217527149327,48.8285106166042L-191.52217527149327,-50.68928408304813z" style="fill:rgb(238,238,238); fill-opacity: 0.4"></path><path d="M50.068500545231686,-58.90854099487552L20.65833740093605,-35.56923847409373M-191.52217527149327,-50.68928408304813L-191.52217527149327,48.8285106166042M-191.52217527149327,48.8285106166042L20.65833740093605,63.94855622555859" style="fill:none;stroke:rgb(0,0,0);stroke-width:1;stroke-linecap:round"></path><path d="M20.65833740093605,-35.56923847409374L50.0685005452317,-58.90854099487552L-162.1120121271976,-74.02858660382992z" style="fill:rgb(238,238,238); fill-opacity: 0.4"></path><path d="M155.64908189918796,155.5691158402293L129.1265178151343,153.67911013911M129.1265178151343,-142.1494517896682L129.1265178151343,153.67911013911M129.1265178151343,153.67911013911L121.17876976861417,159.9862800485929" style="fill:none;stroke:rgb(0,0,0);stroke-width:1;stroke-linecap:round"></path><path d="M20.65833740093605,63.9485562255586L50.0685005452317,40.6092537047768L50.0685005452317,-58.90854099487552zM20.65833740093605,63.9485562255586L-191.52217527149327,48.8285106166042L50.0685005452317,40.6092537047768z" style="fill:rgb(238,238,238); fill-opacity: 0.4"></path><path d="M155.64908189918796,-140.25944608854888L155.64908189918796,155.5691158402293M155.64908189918796,155.5691158402293L147.70133385266786,161.87628574971222" style="fill:none;stroke:rgb(0,0,0);stroke-width:1;stroke-linecap:round"></path><path d="M-191.52217527149327,-50.68928408304813L20.65833740093605,-35.56923847409374L-162.1120121271976,-74.02858660382992zM121.17876976861417,159.98628004859293L129.1265178151343,153.67911013911004L155.64908189918796,155.5691158402293z" style="fill:rgb(238,238,238); fill-opacity: 0.4"></path><path d="M-191.52217527149327,-50.68928408304813L20.65833740093605,-35.56923847409373" style="fill:none;stroke:rgb(0,0,0);stroke-width:1;stroke-linecap:round"></path><path d="M147.70133385266786,161.87628574971222L121.17876976861417,159.98628004859293L155.64908189918796,155.5691158402293z" style="fill:rgb(238,238,238); fill-opacity: 0.4"></path><path d="M121.17876976861417,-135.84228188018528L121.17876976861417,159.9862800485929M121.17876976861417,159.9862800485929L147.70133385266786,161.87628574971222" style="fill:none;stroke:rgb(0,0,0);stroke-width:1;stroke-linecap:round"></path><path d="M155.64908189918796,155.5691158402293L129.1265178151343,153.67911013911004L129.1265178151343,-142.14945178966818z" style="fill:rgb(238,238,238); fill-opacity: 0.4"></path><path d="M52.45109784421042,3.737680627007187L95.81693229086873,6.827942717739905M258.6995890515237,149.46577106522162L232.17702496747003,147.5757653641023M232.17702496747003,-121.3592882437521L232.17702496747003,147.5757653641023M232.17702496747003,147.5757653641023L224.22927692094993,153.88293527358522M147.70133385266786,-133.952276179066L147.70133385266786,161.87628574971222" style="fill:none;stroke:rgb(0,0,0);stroke-width:1;stroke-linecap:round"></path><path d="M-191.52217527149327,-50.68928408304813L-191.52217527149327,48.8285106166042L20.65833740093605,-35.56923847409374zM147.70133385266786,161.87628574971222L155.64908189918796,155.5691158402293L155.64908189918796,-140.25944608854888z" style="fill:rgb(238,238,238); fill-opacity: 0.4"></path><path d="M258.6995890515237,-119.46928254263278L258.6995890515237,149.46577106522162M258.6995890515237,149.46577106522162L250.75184100500357,155.77294097470454" style="fill:none;stroke:rgb(0,0,0);stroke-width:1;stroke-linecap:round"></path><path d="M129.1265178151343,153.67911013911004L121.17876976861417,159.98628004859293L121.17876976861417,-135.84228188018525zM20.65833740093605,-35.56923847409374L20.65833740093605,63.9485562255586L50.0685005452317,-58.90854099487552z" style="fill:rgb(238,238,238); fill-opacity: 0.4"></path><path d="M97.5018446525077,-2.356457271738435L94.13201992922978,0.31776654241431695L121.32624667125599,8.645743947582682z" style="fill:rgb(0,0,0)"></path><path d="M224.2292769209499,153.88293527358522L232.17702496747,147.5757653641023L258.6995890515237,149.4657710652216z" style="fill:rgb(238,238,238); fill-opacity: 0.4"></path><path d="M93.09068671516829,11.98883269183934L95.81693229086872,16.527724128206923L121.32624667125599,8.645743947582682z" style="fill:rgb(0,0,0)"></path><path d="M-191.52217527149327,48.8285106166042L20.65833740093605,63.9485562255586L20.65833740093605,-35.56923847409374z" style="fill:rgb(238,238,238); fill-opacity: 0.4"></path><path d="M94.13201992922978,0.31776654241431695L93.09068671516829,11.98883269183934L121.32624667125599,8.645743947582682z" style="fill:rgb(0,0,0)"></path><path d="M155.64908189918796,-140.25944608854888L155.64908189918796,155.5691158402293L129.1265178151343,-142.14945178966818zM121.17876976861417,159.98628004859293L147.70133385266786,161.87628574971222L147.70133385266786,-133.952276179066zM250.75184100500357,155.7729409747045L224.2292769209499,153.88293527358522L258.6995890515237,149.4657710652216zM129.1265178151343,-142.14945178966818L129.1265178151343,153.67911013911004L121.17876976861417,-135.84228188018525zM258.6995890515237,149.4657710652216L232.17702496747,147.5757653641023L232.17702496747,-121.3592882437521z" style="fill:rgb(238,238,238); fill-opacity: 0.4"></path><path d="M155.50160499654615,11.08109001246137L198.86743944320446,14.171352103194089M20.65833740093605,-35.56923847409373L20.65833740093605,63.94855622555859M224.22927692094993,-115.05211833426921L224.22927692094993,153.88293527358522M224.22927692094993,153.88293527358522L250.75184100500357,155.77294097470454M250.75184100500357,-113.16211263314989L250.75184100500357,155.77294097470454" style="fill:none;stroke:rgb(0,0,0);stroke-width:1;stroke-linecap:round"></path><path d="M250.75184100500357,155.7729409747045L258.6995890515237,149.4657710652216L258.6995890515237,-119.46928254263281zM232.17702496747,147.5757653641023L224.2292769209499,153.88293527358522L224.2292769209499,-115.0521183342692z" style="fill:rgb(238,238,238); fill-opacity: 0.4"></path><path d="M155.64908189918796,-140.25944608854888L129.1265178151343,-142.1494517896682M129.1265178151343,-142.1494517896682L121.17876976861417,-135.84228188018528" style="fill:none;stroke:rgb(0,0,0);stroke-width:1;stroke-linecap:round"></path><path d="M147.70133385266786,-133.952276179066L147.70133385266786,161.87628574971222L155.64908189918796,-140.25944608854888z" style="fill:rgb(238,238,238); fill-opacity: 0.4"></path><path d="M200.55235180484337,4.986952113715745L197.18252708156547,7.661175927868498L224.37675382359168,15.989153333036862zM196.14119386750397,19.332242077293518L198.86743944320443,23.871133513661107L224.37675382359168,15.989153333036862z" style="fill:rgb(0,0,0)"></path><path d="M121.17876976861417,-135.84228188018525L121.17876976861417,159.98628004859293L147.70133385266786,-133.952276179066z" style="fill:rgb(238,238,238); fill-opacity: 0.4"></path><path d="M197.18252708156547,7.661175927868498L196.14119386750397,19.332242077293518L224.37675382359168,15.989153333036862z" style="fill:rgb(0,0,0)"></path><path d="M155.64908189918796,-140.25944608854888L147.70133385266786,-133.952276179066" style="fill:none;stroke:rgb(0,0,0);stroke-width:1;stroke-linecap:round"></path><path d="M258.6995890515237,-119.46928254263281L258.6995890515237,149.4657710652216L232.17702496747,-121.3592882437521z" style="fill:rgb(238,238,238); fill-opacity: 0.4"></path><path d="M361.7500962038594,67.01079657905579L335.2275321198058,65.12079087793649M335.2275321198058,-24.217494986677963L335.2275321198058,65.12079087793649M335.2275321198058,65.12079087793649L327.27978407328567,71.42796078741942" style="fill:none;stroke:rgb(0,0,0);stroke-width:1;stroke-linecap:round"></path><path d="M232.17702496747,-121.3592882437521L232.17702496747,147.5757653641023L224.2292769209499,-115.0521183342692zM224.2292769209499,153.88293527358522L250.75184100500357,155.7729409747045L250.75184100500357,-113.16211263314989zM147.70133385266786,-133.952276179066L155.64908189918796,-140.25944608854888L129.1265178151343,-142.14945178966818z" style="fill:rgb(238,238,238); fill-opacity: 0.4"></path><path d="M258.5521121488819,18.424499397915554L301.9179465955403,21.514761488648276" style="fill:none;stroke:rgb(0,0,0);stroke-width:1;stroke-linecap:round"></path><path d="M121.17876976861417,-135.84228188018525L147.70133385266786,-133.952276179066L129.1265178151343,-142.14945178966818z" style="fill:rgb(238,238,238); fill-opacity: 0.4"></path><path d="M361.7500962038594,-22.327489285558663L361.7500962038594,67.01079657905579M361.7500962038594,67.01079657905579L353.80234815733934,73.31796648853873" style="fill:none;stroke:rgb(0,0,0);stroke-width:1;stroke-linecap:round"></path><path d="M361.7500962038594,67.01079657905579L335.22753211980574,65.1207908779365L335.22753211980574,-24.21749498667796zM327.27978407328567,71.42796078741944L335.22753211980574,65.1207908779365L361.7500962038594,67.01079657905579z" style="fill:rgb(238,238,238); fill-opacity: 0.4"></path><path d="M121.17876976861417,-135.84228188018528L147.70133385266786,-133.952276179066M258.6995890515237,-119.46928254263278L232.17702496747003,-121.3592882437521M232.17702496747003,-121.3592882437521L224.22927692094993,-115.05211833426921" style="fill:none;stroke:rgb(0,0,0);stroke-width:1;stroke-linecap:round"></path><path d="M250.75184100500357,-113.16211263314989L250.75184100500357,155.7729409747045L258.6995890515237,-119.46928254263281z" style="fill:rgb(238,238,238); fill-opacity: 0.4"></path><path d="M303.60285895717914,12.33036149916993L300.23303423390126,15.00458531332268L327.4272609759275,23.33256271849105zM299.19170101983974,26.67565146274771L301.91794659554023,31.214542899115287L327.4272609759275,23.33256271849105z" style="fill:rgb(0,0,0)"></path><path d="M361.7500962038594,-22.327489285558663L361.7500962038594,67.01079657905579L335.22753211980574,-24.21749498667796zM224.2292769209499,-115.0521183342692L224.2292769209499,153.88293527358522L250.75184100500357,-113.16211263314989z" style="fill:rgb(238,238,238); fill-opacity: 0.4"></path><path d="M258.6995890515237,-119.46928254263278L250.75184100500357,-113.16211263314989M361.7500962038594,-22.327489285558663L335.2275321198058,-24.217494986677963M335.2275321198058,-24.217494986677963L327.27978407328567,-17.910325077195026" style="fill:none;stroke:rgb(0,0,0);stroke-width:1;stroke-linecap:round"></path><path d="M353.80234815733934,73.31796648853873L327.27978407328567,71.42796078741944L361.7500962038594,67.01079657905579z" style="fill:rgb(238,238,238); fill-opacity: 0.4"></path><path d="M300.23303423390126,15.00458531332268L299.19170101983974,26.67565146274771L327.4272609759275,23.33256271849105z" style="fill:rgb(0,0,0)"></path><path d="M335.22753211980574,-24.21749498667796L335.22753211980574,65.1207908779365L327.27978407328567,-17.910325077195022zM353.80234815733934,73.31796648853873L361.7500962038594,67.01079657905579L361.7500962038594,-22.327489285558663zM335.22753211980574,65.1207908779365L327.27978407328567,71.42796078741944L327.27978407328567,-17.910325077195022z" style="fill:rgb(238,238,238); fill-opacity: 0.4"></path><path d="M327.27978407328567,-17.910325077195026L327.27978407328567,71.42796078741942M327.27978407328567,71.42796078741942L353.80234815733934,73.31796648853873" style="fill:none;stroke:rgb(0,0,0);stroke-width:1;stroke-linecap:round"></path><path d="M250.75184100500357,-113.16211263314989L258.6995890515237,-119.46928254263281L232.17702496747,-121.3592882437521z" style="fill:rgb(238,238,238); fill-opacity: 0.4"></path><path d="M361.7500962038594,-22.327489285558663L353.80234815733934,-16.020319376075722M353.80234815733934,-16.020319376075722L353.80234815733934,73.31796648853873" style="fill:none;stroke:rgb(0,0,0);stroke-width:1;stroke-linecap:round"></path><path d="M224.2292769209499,-115.0521183342692L250.75184100500357,-113.16211263314989L232.17702496747,-121.3592882437521zM353.80234815733934,-16.020319376075722L361.7500962038594,-22.327489285558663L335.22753211980574,-24.21749498667796zM327.27978407328567,71.42796078741944L353.80234815733934,73.31796648853873L353.80234815733934,-16.020319376075722zM353.80234815733934,-16.020319376075722L353.80234815733934,73.31796648853873L361.7500962038594,-22.327489285558663z" style="fill:rgb(238,238,238); fill-opacity: 0.4"></path><path d="M224.22927692094993,-115.05211833426921L250.75184100500357,-113.16211263314989" style="fill:none;stroke:rgb(0,0,0);stroke-width:1;stroke-linecap:round"></path><path d="M327.27978407328567,-17.910325077195022L353.80234815733934,-16.020319376075722L335.22753211980574,-24.21749498667796zM327.27978407328567,-17.910325077195022L327.27978407328567,71.42796078741944L353.80234815733934,-16.020319376075722z" style="fill:rgb(238,238,238); fill-opacity: 0.4"></path><path d="M327.27978407328567,-17.910325077195026L353.80234815733934,-16.020319376075722" style="fill:none;stroke:rgb(0,0,0);stroke-width:1;stroke-linecap:round"></path></svg>